<svg width="512" height="512" viewBox="0 0 512 512" fill="none" xmlns="http://www.w3.org/2000/svg">
<g clip-path="url(#clip0_61_17)">
<path d="M0 0H512V512H0V0Z" fill="#CCCCCC"/>
<path d="M164 328.105H240.635C240.635 342.437 240.825 351.505 241.204 355.31C241.584 358.989 243.101 362.096 245.757 364.633C248.539 367.169 252.269 368.438 256.948 368.438C260.869 368.438 264.093 367.233 266.623 364.823C269.152 362.413 270.543 359.306 270.796 355.501C271.175 351.696 271.365 344.022 271.365 332.48V283.396C267.571 291.64 261.88 297.855 254.293 302.04C246.705 306.099 237.284 308.128 226.029 308.128C211.992 308.128 199.599 304.323 188.849 296.713C178.1 289.103 171.271 279.971 168.363 269.317C165.454 258.663 164 244.268 164 226.131V201.589C164 180.027 164.822 163.983 166.466 153.455C168.236 142.928 172.663 133.226 179.744 124.347C186.826 115.342 196.627 108.366 209.146 103.42C221.666 98.4732 236.209 96 252.775 96C273.262 96 290.081 98.8537 303.233 104.561C316.385 110.269 326.565 118.513 333.773 129.294C340.981 139.948 345.155 151.172 346.293 162.968C347.431 174.763 348 197.593 348 231.458V274.264C348 310.919 347.494 335.461 346.482 347.891C345.471 360.193 341.045 371.862 333.204 382.897C325.49 393.931 314.994 402.239 301.715 407.819C288.437 413.273 273.072 416 255.621 416C233.996 416 216.291 412.512 202.507 405.536C188.849 398.56 178.986 388.731 172.915 376.048C166.972 363.364 164 347.383 164 328.105ZM240.635 232.029C240.635 244.966 242.279 252.956 245.567 256C248.981 259.044 252.459 260.566 256 260.566C261.311 260.566 265.168 258.663 267.571 254.858C270.1 250.927 271.365 243.317 271.365 232.029V176.285C271.365 162.714 270.164 153.836 267.761 149.65C265.485 145.465 261.627 143.372 256.19 143.372C252.902 143.372 249.487 145.021 245.946 148.319C242.405 151.489 240.635 160.178 240.635 174.383V232.029Z" fill="white"/>
<g clip-path="url(#clip1_61_17)">
<rect width="120" height="120" transform="translate(392 392)" fill="#999999"/>
<path d="M489.65 417.4L456.45 404.1C453.595 402.949 450.405 402.949 447.55 404.1L414.35 417.4C412.158 418.321 410.289 419.873 408.981 421.858C407.672 423.843 406.983 426.172 407 428.55V439.7C406.998 452.64 410.887 465.281 418.163 475.981C425.439 486.681 435.766 494.945 447.8 499.7C450.658 500.836 453.842 500.836 456.7 499.7C468.734 494.945 479.061 486.681 486.337 475.981C493.613 465.281 497.502 452.64 497.5 439.7V428.55C497.478 426.114 496.715 423.743 495.313 421.752C493.91 419.76 491.935 418.242 489.65 417.4ZM489.65 439.7C489.678 451.168 486.254 462.38 479.825 471.876C473.396 481.373 464.258 488.716 453.6 492.95C452.501 493.347 451.299 493.347 450.2 492.95C439.561 488.7 430.444 481.351 424.034 471.855C417.623 462.36 414.214 451.157 414.25 439.7V428.55C414.246 427.657 414.504 426.783 414.993 426.036C415.482 425.29 416.18 424.703 417 424.35L450.2 411.05C451.299 410.653 452.501 410.653 453.6 411.05L487 424.35C487.839 424.688 488.557 425.268 489.065 426.016C489.573 426.764 489.846 427.646 489.85 428.55L489.65 439.7ZM465.75 437C465.765 434.439 465.064 431.924 463.726 429.74C462.388 427.556 460.467 425.789 458.179 424.638C455.891 423.487 453.327 422.998 450.776 423.226C448.225 423.454 445.788 424.39 443.74 425.929C441.693 427.467 440.115 429.547 439.186 431.934C438.258 434.321 438.014 436.92 438.483 439.438C438.951 441.956 440.114 444.293 441.84 446.186C443.566 448.078 445.786 449.451 448.25 450.15V477C448.263 477.99 448.662 478.937 449.363 479.637C450.063 480.338 451.009 480.737 452 480.75H462C462.995 480.75 463.948 480.355 464.652 479.652C465.355 478.948 465.75 477.994 465.75 477C465.75 476.005 465.355 475.052 464.652 474.348C463.948 473.645 462.995 473.25 462 473.25H455.75V465.75H462C462.995 465.75 463.948 465.355 464.652 464.652C465.355 463.948 465.75 462.994 465.75 462C465.75 461.005 465.355 460.052 464.652 459.348C463.948 458.645 462.995 458.25 462 458.25H455.75V450.15C458.617 449.337 461.142 447.616 462.945 445.244C464.749 442.873 465.733 439.979 465.75 437ZM445.75 437C445.75 435.764 446.117 434.555 446.803 433.528C447.49 432.5 448.466 431.699 449.608 431.226C450.75 430.753 452.007 430.629 453.219 430.87C454.432 431.111 455.545 431.706 456.419 432.581C457.294 433.455 457.889 434.568 458.13 435.781C458.371 436.993 458.247 438.25 457.774 439.392C457.301 440.534 456.5 441.51 455.472 442.197C454.445 442.883 453.236 443.25 452 443.25C451.179 443.25 450.367 443.088 449.608 442.774C448.85 442.46 448.161 442 447.581 441.419C447 440.839 446.54 440.15 446.226 439.392C445.912 438.633 445.75 437.821 445.75 437Z" fill="white"/>
</g>
</g>
<defs>
<clipPath id="clip0_61_17">
<rect width="512" height="512" fill="white"/>
</clipPath>
<clipPath id="clip1_61_17">
<rect width="120" height="120" fill="white" transform="translate(392 392)"/>
</clipPath>
</defs>
</svg>
